<?xml version="1.0" encoding="UTF-8"?>
<!DOCTYPE svg PUBLIC "-//W3C//DTD SVG 1.1//EN" "http://www.w3.org/Graphics/SVG/1.1/DTD/svg11.dtd">
<svg version="1.2" width="280mm" height="157.5mm" viewBox="0 0 28000 15750" preserveAspectRatio="xMidYMid" fill-rule="evenodd" stroke-width="28.222" stroke-linejoin="round" xmlns="http://www.w3.org/2000/svg" xmlns:ooo="http://xml.openoffice.org/svg/export" xmlns:xlink="http://www.w3.org/1999/xlink" xmlns:presentation="http://sun.com/xmlns/staroffice/presentation" xmlns:smil="http://www.w3.org/2001/SMIL20/" xmlns:anim="urn:oasis:names:tc:opendocument:xmlns:animation:1.0" xml:space="preserve">
 <defs class="ClipPathGroup">
  <clipPath id="presentation_clip_path" clipPathUnits="userSpaceOnUse">
   <rect x="0" y="0" width="28000" height="15750"/>
  </clipPath>
  <clipPath id="presentation_clip_path_shrink" clipPathUnits="userSpaceOnUse">
   <rect x="28" y="15" width="27944" height="15719"/>
  </clipPath>
 </defs>
 <defs class="TextShapeIndex">
  <g ooo:slide="id1" ooo:id-list="id3 id4 id5 id6 id7 id8 id9 id10 id11 id12 id13 id14"/>
 </defs>
 <defs class="EmbeddedBulletChars">
  <g id="bullet-char-template-57356" transform="scale(0.00048828125,-0.00048828125)">
   <path d="M 580,1141 L 1163,571 580,0 -4,571 580,1141 Z"/>
  </g>
  <g id="bullet-char-template-57354" transform="scale(0.00048828125,-0.00048828125)">
   <path d="M 8,1128 L 1137,1128 1137,0 8,0 8,1128 Z"/>
  </g>
  <g id="bullet-char-template-10146" transform="scale(0.00048828125,-0.00048828125)">
   <path d="M 174,0 L 602,739 174,1481 1456,739 174,0 Z M 1358,739 L 309,1346 659,739 1358,739 Z"/>
  </g>
  <g id="bullet-char-template-10132" transform="scale(0.00048828125,-0.00048828125)">
   <path d="M 2015,739 L 1276,0 717,0 1260,543 174,543 174,936 1260,936 717,1481 1274,1481 2015,739 Z"/>
  </g>
  <g id="bullet-char-template-10007" transform="scale(0.00048828125,-0.00048828125)">
   <path d="M 0,-2 C -7,14 -16,27 -25,37 L 356,567 C 262,823 215,952 215,954 215,979 228,992 255,992 264,992 276,990 289,987 310,991 331,999 354,1012 L 381,999 492,748 772,1049 836,1024 860,1049 C 881,1039 901,1025 922,1006 886,937 835,863 770,784 769,783 710,716 594,584 L 774,223 C 774,196 753,168 711,139 L 727,119 C 717,90 699,76 672,76 641,76 570,178 457,381 L 164,-76 C 142,-110 111,-127 72,-127 30,-127 9,-110 8,-76 1,-67 -2,-52 -2,-32 -2,-23 -1,-13 0,-2 Z"/>
  </g>
  <g id="bullet-char-template-10004" transform="scale(0.00048828125,-0.00048828125)">
   <path d="M 285,-33 C 182,-33 111,30 74,156 52,228 41,333 41,471 41,549 55,616 82,672 116,743 169,778 240,778 293,778 328,747 346,684 L 369,508 C 377,444 397,411 428,410 L 1163,1116 C 1174,1127 1196,1133 1229,1133 1271,1133 1292,1118 1292,1087 L 1292,965 C 1292,929 1282,901 1262,881 L 442,47 C 390,-6 338,-33 285,-33 Z"/>
  </g>
  <g id="bullet-char-template-9679" transform="scale(0.00048828125,-0.00048828125)">
   <path d="M 813,0 C 632,0 489,54 383,161 276,268 223,411 223,592 223,773 276,916 383,1023 489,1130 632,1184 813,1184 992,1184 1136,1130 1245,1023 1353,916 1407,772 1407,592 1407,412 1353,268 1245,161 1136,54 992,0 813,0 Z"/>
  </g>
  <g id="bullet-char-template-8226" transform="scale(0.00048828125,-0.00048828125)">
   <path d="M 346,457 C 273,457 209,483 155,535 101,586 74,649 74,723 74,796 101,859 155,911 209,963 273,989 346,989 419,989 480,963 531,910 582,859 608,796 608,723 608,648 583,586 532,535 482,483 420,457 346,457 Z"/>
  </g>
  <g id="bullet-char-template-8211" transform="scale(0.00048828125,-0.00048828125)">
   <path d="M -4,459 L 1135,459 1135,606 -4,606 -4,459 Z"/>
  </g>
  <g id="bullet-char-template-61548" transform="scale(0.00048828125,-0.00048828125)">
   <path d="M 173,740 C 173,903 231,1043 346,1159 462,1274 601,1332 765,1332 928,1332 1067,1274 1183,1159 1299,1043 1357,903 1357,740 1357,577 1299,437 1183,322 1067,206 928,148 765,148 601,148 462,206 346,322 231,437 173,577 173,740 Z"/>
  </g>
 </defs>
 <g>
  <g id="id2" class="Master_Slide">
   <g id="bg-id2" class="Background"/>
   <g id="bo-id2" class="BackgroundObjects"/>
  </g>
 </g>
 <g class="SlideGroup">
  <g>
   <g id="container-id1">
    <g id="id1" class="Slide" clip-path="url(#presentation_clip_path)">
     <g class="Page">
      <g id="bg-id1" class="Background">
       <path fill="rgb(255,255,255)" stroke="none" d="M 14000,15749 L 0,15749 0,0 27999,0 27999,15749 14000,15749 Z"/>
      </g>
      <g class="Group">
       <g class="Graphic">
        <g id="id3">
         <rect class="BoundingBox" stroke="none" fill="none" x="7995" y="5308" width="1397" height="1051"/>
         <defs>
          <clipPath id="clip_path_1" clipPathUnits="userSpaceOnUse">
           <path d="M 7995,5308 L 9391,5308 9391,6358 7995,6358 7995,5308 Z"/>
          </clipPath>
         </defs>
         <g clip-path="url(#clip_path_1)">
          <path fill="rgb(0,0,0)" stroke="none" d="M 8150,6016 C 8158,5822 8275,5790 8322,5790 8464,5790 8478,5965 8478,6016 L 8150,6016 8150,6016 Z M 8149,6043 L 8535,6043 C 8565,6043 8569,6043 8569,6016 8569,5887 8495,5761 8322,5761 8161,5761 8034,5895 8034,6058 8034,6232 8179,6358 8338,6358 8507,6358 8569,6214 8569,6189 8569,6176 8558,6173 8551,6173 8539,6173 8536,6181 8533,6191 8485,6325 8360,6325 8347,6325 8277,6325 8222,6286 8190,6238 8149,6176 8149,6090 8149,6043 L 8149,6043 Z"/>
          <path fill="rgb(0,0,0)" stroke="none" d="M 9059,5666 L 9355,5666 C 9368,5666 9391,5666 9391,5644 9391,5621 9369,5621 9355,5621 L 9059,5621 9059,5342 C 9059,5330 9059,5308 9035,5308 9011,5308 9011,5329 9011,5342 L 9011,5621 8714,5621 C 8701,5621 8678,5621 8678,5643 8678,5666 8700,5666 8714,5666 L 9011,5666 9011,5945 C 9011,5957 9011,5979 9034,5979 9059,5979 9059,5958 9059,5945 L 9059,5666 9059,5666 Z"/>
         </g>
        </g>
       </g>
       <g class="Group">
        <g class="Graphic">
         <g id="id4">
          <rect class="BoundingBox" stroke="none" fill="none" x="24324" y="1905" width="1114" height="924"/>
          <defs>
           <clipPath id="clip_path_2" clipPathUnits="userSpaceOnUse">
            <path d="M 24324,1905 L 25437,1905 25437,2828 24324,2828 24324,1905 Z"/>
           </clipPath>
          </defs>
          <g clip-path="url(#clip_path_2)">
           <path fill="rgb(0,0,0)" stroke="none" d="M 24547,2150 C 24552,2124 24562,2079 24562,2073 24562,2053 24550,2041 24534,2041 24531,2041 24504,2042 24495,2084 L 24356,2777 C 24353,2791 24353,2793 24353,2796 24353,2814 24364,2828 24380,2828 24400,2828 24412,2806 24414,2803 24418,2792 24430,2730 24467,2546 24498,2578 24542,2583 24561,2583 24629,2583 24666,2529 24689,2495 24698,2549 24734,2583 24776,2583 24810,2583 24832,2555 24848,2517 24864,2474 24877,2401 24877,2398 24877,2386 24868,2386 24865,2386 24856,2386 24855,2391 24852,2408 24835,2486 24818,2556 24778,2556 24752,2556 24749,2525 24749,2501 24749,2475 24761,2419 24769,2377 L 24796,2248 C 24799,2230 24808,2184 24812,2166 24817,2139 24827,2093 24827,2086 24827,2065 24813,2054 24799,2054 24794,2054 24769,2055 24761,2096 L 24716,2319 C 24704,2379 24693,2430 24690,2442 24689,2448 24643,2556 24565,2556 24516,2556 24493,2517 24493,2452 24493,2418 24500,2384 24507,2351 L 24547,2150 24547,2150 Z"/>
           <path fill="rgb(0,0,0)" stroke="none" d="M 25410,1946 C 25421,1946 25437,1946 25437,1926 25437,1905 25421,1905 25410,1905 L 25007,1905 C 24996,1905 24980,1905 24980,1925 24980,1946 24995,1946 25007,1946 L 25410,1946 25410,1946 Z"/>
          </g>
         </g>
        </g>
       </g>
       <g class="Group">
        <g class="Graphic">
         <g id="id5">
          <rect class="BoundingBox" stroke="none" fill="none" x="23273" y="12486" width="1117" height="1168"/>
          <defs>
           <clipPath id="clip_path_3" clipPathUnits="userSpaceOnUse">
            <path d="M 23273,12486 L 24389,12486 24389,13653 23273,13653 23273,12486 Z"/>
           </clipPath>
          </defs>
          <g clip-path="url(#clip_path_3)">
           <path fill="rgb(0,0,0)" stroke="none" d="M 23494,12999 C 23499,12975 23508,12931 23508,12925 23508,12906 23497,12894 23481,12894 23478,12894 23451,12896 23442,12936 L 23305,13603 C 23302,13617 23302,13620 23302,13622 23302,13639 23312,13653 23328,13653 23349,13653 23360,13632 23362,13629 23366,13618 23378,13558 23415,13381 23445,13412 23488,13417 23507,13417 23574,13417 23612,13365 23635,13332 23643,13384 23679,13417 23721,13417 23754,13417 23776,13390 23791,13353 23808,13312 23820,13241 23820,13239 23820,13228 23812,13228 23809,13228 23799,13228 23798,13232 23795,13248 23779,13323 23762,13391 23723,13391 23697,13391 23694,13361 23694,13338 23694,13313 23705,13259 23713,13218 L 23740,13094 C 23743,13077 23752,13033 23756,13015 23761,12989 23770,12945 23770,12938 23770,12917 23757,12907 23743,12907 23738,12907 23713,12908 23705,12947 L 23660,13163 C 23649,13221 23638,13269 23636,13281 23635,13286 23589,13391 23511,13391 23463,13391 23440,13353 23440,13291 23440,13258 23447,13225 23454,13193 L 23494,12999 23494,12999 Z"/>
           <path fill="rgb(0,0,0)" stroke="none" d="M 24159,12803 L 24364,12803 C 24373,12803 24389,12803 24389,12784 24389,12764 24374,12764 24364,12764 L 24159,12764 24159,12516 C 24159,12505 24159,12486 24143,12486 24127,12486 24127,12505 24127,12516 L 24127,12764 23921,12764 C 23912,12764 23896,12764 23896,12783 23896,12803 23912,12803 23921,12803 L 24127,12803 24127,13051 C 24127,13061 24127,13081 24143,13081 24159,13081 24159,13062 24159,13051 L 24159,12803 24159,12803 Z"/>
          </g>
         </g>
        </g>
       </g>
       <g class="com.sun.star.drawing.CustomShape">
        <g id="id6">
         <rect class="BoundingBox" stroke="none" fill="none" x="13643" y="5712" width="3522" height="1555"/>
         <path fill="rgb(255,255,255)" stroke="none" d="M 16855,5713 L 16892,5804 16927,5896 16959,5989 16989,6083 17017,6176 17043,6272 17066,6367 17087,6464 17105,6560 17120,6658 17134,6756 17145,6854 17154,6953 17160,7051 17163,7150 13644,7265 16855,5713 Z"/>
         <path fill="none" stroke="rgb(0,0,0)" d="M 16855,5713 L 16892,5804 16927,5896 16959,5989 16989,6083 17017,6176 17043,6272 17066,6367 17087,6464 17105,6560 17120,6658 17134,6756 17145,6854 17154,6953 17160,7051 17163,7150 13644,7265 16855,5713 Z"/>
        </g>
       </g>
       <g class="com.sun.star.drawing.CustomShape">
        <g id="id7">
         <rect class="BoundingBox" stroke="none" fill="none" x="11815" y="4591" width="5243" height="4893"/>
         <path fill="rgb(255,255,255)" stroke="none" d="M 17056,7037 C 17056,7466 16935,7888 16705,8260 16475,8631 16144,8940 15746,9154 15348,9369 14896,9482 14436,9482 13976,9482 13524,9369 13126,9154 12728,8940 12397,8631 12167,8260 11937,7888 11816,7466 11816,7037 11816,6608 11937,6186 12167,5815 12397,5443 12728,5134 13126,4920 13524,4705 13976,4592 14436,4592 14896,4592 15348,4705 15746,4920 16144,5134 16475,5443 16705,5814 16935,6186 17056,6608 17056,7037 L 17056,7037 Z"/>
         <path fill="none" stroke="rgb(255,255,255)" d="M 17056,7037 C 17056,7466 16935,7888 16705,8260 16475,8631 16144,8940 15746,9154 15348,9369 14896,9482 14436,9482 13976,9482 13524,9369 13126,9154 12728,8940 12397,8631 12167,8260 11937,7888 11816,7466 11816,7037 11816,6608 11937,6186 12167,5815 12397,5443 12728,5134 13126,4920 13524,4705 13976,4592 14436,4592 14896,4592 15348,4705 15746,4920 16144,5134 16475,5443 16705,5814 16935,6186 17056,6608 17056,7037 L 17056,7037 Z"/>
        </g>
       </g>
       <g class="Group">
        <g class="Graphic">
         <g id="id8">
          <rect class="BoundingBox" stroke="none" fill="none" x="12167" y="5537" width="1425" height="870"/>
          <path fill="rgb(0,0,0)" stroke="none" d="M 12366,5999 C 12374,5797 12486,5763 12532,5763 12669,5763 12682,5946 12682,5999 L 12366,5999 12366,5999 Z M 12365,6027 L 12737,6027 C 12766,6027 12770,6027 12770,5999 12770,5865 12698,5733 12532,5733 12377,5733 12254,5873 12254,6042 12254,6224 12394,6355 12548,6355 12710,6355 12770,6205 12770,6179 12770,6165 12760,6163 12753,6163 12741,6163 12738,6171 12736,6182 12689,6321 12569,6321 12556,6321 12489,6321 12436,6281 12405,6230 12365,6165 12365,6076 12365,6027 L 12365,6027 Z"/>
          <path fill="rgb(0,0,0)" stroke="none" d="M 13504,5634 C 13518,5634 13541,5634 13541,5612 13541,5588 13519,5588 13504,5588 L 12948,5588 C 12933,5588 12910,5588 12910,5611 12910,5634 12932,5634 12948,5634 L 13504,5634 13504,5634 Z"/>
         </g>
        </g>
       </g>
       <g class="com.sun.star.drawing.CustomShape">
        <g id="id9">
         <rect class="BoundingBox" stroke="none" fill="none" x="12361" y="6990" width="354" height="354"/>
         <path fill="rgb(0,0,0)" stroke="none" d="M 12713,7167 C 12713,7197 12705,7228 12689,7254 12674,7281 12652,7303 12625,7318 12599,7334 12568,7342 12538,7342 12507,7342 12476,7334 12450,7318 12423,7303 12401,7281 12386,7254 12370,7228 12362,7197 12362,7167 12362,7136 12370,7105 12386,7079 12401,7052 12423,7030 12450,7015 12476,6999 12507,6991 12538,6991 12568,6991 12599,6999 12625,7015 12652,7030 12674,7052 12689,7079 12705,7105 12713,7136 12713,7167 L 12713,7167 Z"/>
         <path fill="none" stroke="rgb(0,0,0)" d="M 12713,7167 C 12713,7197 12705,7228 12689,7254 12674,7281 12652,7303 12625,7318 12599,7334 12568,7342 12538,7342 12507,7342 12476,7334 12450,7318 12423,7303 12401,7281 12386,7254 12370,7228 12362,7197 12362,7167 12362,7136 12370,7105 12386,7079 12401,7052 12423,7030 12450,7015 12476,6999 12507,6991 12538,6991 12568,6991 12599,6999 12625,7015 12652,7030 12674,7052 12689,7079 12705,7105 12713,7136 12713,7167 Z"/>
        </g>
       </g>
       <g class="Group">
        <g class="Graphic">
         <g id="id10">
          <rect class="BoundingBox" stroke="none" fill="none" x="15659" y="6013" width="1116" height="951"/>
          <path fill="rgb(0,0,0)" stroke="none" d="M 16357,6506 C 16383,6411 16383,6350 16383,6336 16383,6294 16375,6111 16241,6111 16136,6111 16053,6230 16053,6318 16053,6428 16173,6482 16262,6508 16234,6610 16213,6675 16171,6752 16155,6784 16094,6896 16019,6896 15932,6896 15925,6838 15925,6805 15925,6776 15935,6740 15941,6714 15949,6685 15956,6660 15965,6627 L 15981,6572 C 15987,6553 15993,6529 15993,6512 15993,6445 15936,6408 15877,6408 15819,6408 15795,6453 15783,6473 15760,6511 15744,6579 15744,6582 15744,6594 15757,6594 15759,6594 15772,6594 15773,6593 15781,6568 15802,6488 15828,6433 15874,6433 15895,6433 15913,6442 15913,6485 15913,6510 15895,6571 15884,6613 15879,6632 15867,6671 15861,6696 15851,6729 15843,6758 15843,6790 15843,6898 15932,6920 16015,6920 16150,6920 16286,6742 16351,6529 16364,6532 16401,6540 16408,6540 16413,6540 16421,6536 16421,6526 16421,6517 16412,6516 16394,6512 L 16357,6506 16357,6506 Z M 16269,6483 C 16207,6464 16085,6420 16085,6317 16085,6247 16151,6136 16240,6136 16272,6136 16306,6153 16306,6271 16306,6342 16286,6419 16269,6483 L 16269,6483 Z"/>
          <path fill="rgb(0,0,0)" stroke="none" d="M 16718,6124 C 16725,6111 16726,6105 16726,6099 16726,6075 16701,6056 16674,6056 16640,6056 16629,6080 16625,6093 L 16507,6435 C 16506,6437 16502,6447 16502,6448 16502,6457 16530,6465 16537,6465 16543,6465 16544,6464 16551,6452 L 16718,6124 16718,6124 Z"/>
         </g>
        </g>
       </g>
      </g>
      <g class="com.sun.star.drawing.LineShape">
       <g id="id11">
        <rect class="BoundingBox" stroke="none" fill="none" x="1689" y="7035" width="9920" height="302"/>
        <path fill="none" stroke="rgb(0,0,0)" d="M 1690,7186 L 11328,7186"/>
        <path fill="rgb(0,0,0)" stroke="none" d="M 11308,7036 L 11608,7186 11308,7336 11308,7036 Z"/>
       </g>
      </g>
      <g class="com.sun.star.drawing.LineShape">
       <g id="id12">
        <rect class="BoundingBox" stroke="none" fill="none" x="13890" y="7441" width="11620" height="5200"/>
        <path fill="none" stroke="rgb(0,0,0)" d="M 13891,7442 L 25253,12511"/>
        <path fill="rgb(0,0,0)" stroke="none" d="M 25295,12365 L 25508,12625 25173,12639 25295,12365 Z"/>
       </g>
      </g>
      <g class="com.sun.star.drawing.LineShape">
       <g id="id13">
        <rect class="BoundingBox" stroke="none" fill="none" x="13892" y="2540" width="12373" height="4172"/>
        <path fill="none" stroke="rgb(0,0,0)" d="M 13893,6710 L 25998,2677"/>
        <path fill="rgb(0,0,0)" stroke="none" d="M 25932,2541 L 26264,2588 26027,2825 25932,2541 Z"/>
       </g>
      </g>
      <g class="com.sun.star.drawing.LineShape">
       <g id="id14">
        <rect class="BoundingBox" stroke="none" fill="none" x="14317" y="7146" width="11929" height="3"/>
        <path fill="none" stroke="rgb(0,0,0)" d="M 26244,7147 L 26082,7147"/>
        <path fill="none" stroke="rgb(0,0,0)" d="M 26002,7147 L 25840,7147"/>
        <path fill="none" stroke="rgb(0,0,0)" d="M 25759,7147 L 25597,7147"/>
        <path fill="none" stroke="rgb(0,0,0)" d="M 25516,7147 L 25355,7147"/>
        <path fill="none" stroke="rgb(0,0,0)" d="M 25274,7147 L 25112,7147"/>
        <path fill="none" stroke="rgb(0,0,0)" d="M 25031,7147 L 24870,7147"/>
        <path fill="none" stroke="rgb(0,0,0)" d="M 24789,7147 L 24627,7147"/>
        <path fill="none" stroke="rgb(0,0,0)" d="M 24546,7147 L 24385,7147"/>
        <path fill="none" stroke="rgb(0,0,0)" d="M 24304,7147 L 24142,7147"/>
        <path fill="none" stroke="rgb(0,0,0)" d="M 24061,7147 L 23899,7147"/>
        <path fill="none" stroke="rgb(0,0,0)" d="M 23819,7147 L 23657,7147"/>
        <path fill="none" stroke="rgb(0,0,0)" d="M 23576,7147 L 23414,7147"/>
        <path fill="none" stroke="rgb(0,0,0)" d="M 23334,7147 L 23172,7147"/>
        <path fill="none" stroke="rgb(0,0,0)" d="M 23091,7147 L 22929,7147"/>
        <path fill="none" stroke="rgb(0,0,0)" d="M 22848,7147 L 22687,7147"/>
        <path fill="none" stroke="rgb(0,0,0)" d="M 22606,7147 L 22444,7147"/>
        <path fill="none" stroke="rgb(0,0,0)" d="M 22363,7147 L 22202,7147"/>
        <path fill="none" stroke="rgb(0,0,0)" d="M 22121,7147 L 21959,7147"/>
        <path fill="none" stroke="rgb(0,0,0)" d="M 21878,7147 L 21717,7147"/>
        <path fill="none" stroke="rgb(0,0,0)" d="M 21636,7147 L 21474,7147"/>
        <path fill="none" stroke="rgb(0,0,0)" d="M 21393,7147 L 21231,7147"/>
        <path fill="none" stroke="rgb(0,0,0)" d="M 21151,7147 L 20989,7147"/>
        <path fill="none" stroke="rgb(0,0,0)" d="M 20908,7147 L 20746,7147"/>
        <path fill="none" stroke="rgb(0,0,0)" d="M 20665,7147 L 20504,7147"/>
        <path fill="none" stroke="rgb(0,0,0)" d="M 20423,7147 L 20261,7147"/>
        <path fill="none" stroke="rgb(0,0,0)" d="M 20180,7147 L 20019,7147"/>
        <path fill="none" stroke="rgb(0,0,0)" d="M 19938,7147 L 19776,7147"/>
        <path fill="none" stroke="rgb(0,0,0)" d="M 19695,7147 L 19534,7147"/>
        <path fill="none" stroke="rgb(0,0,0)" d="M 19453,7147 L 19291,7147"/>
        <path fill="none" stroke="rgb(0,0,0)" d="M 19210,7147 L 19048,7147"/>
        <path fill="none" stroke="rgb(0,0,0)" d="M 18968,7147 L 18806,7147"/>
        <path fill="none" stroke="rgb(0,0,0)" d="M 18725,7147 L 18563,7147"/>
        <path fill="none" stroke="rgb(0,0,0)" d="M 18483,7147 L 18321,7147"/>
        <path fill="none" stroke="rgb(0,0,0)" d="M 18240,7147 L 18078,7147"/>
        <path fill="none" stroke="rgb(0,0,0)" d="M 17997,7147 L 17836,7147"/>
        <path fill="none" stroke="rgb(0,0,0)" d="M 17755,7147 L 17593,7147"/>
        <path fill="none" stroke="rgb(0,0,0)" d="M 17512,7147 L 17351,7147"/>
        <path fill="none" stroke="rgb(0,0,0)" d="M 17270,7147 L 17108,7147"/>
        <path fill="none" stroke="rgb(0,0,0)" d="M 17027,7147 L 16866,7147"/>
        <path fill="none" stroke="rgb(0,0,0)" d="M 16785,7147 L 16623,7147"/>
        <path fill="none" stroke="rgb(0,0,0)" d="M 16542,7147 L 16380,7147"/>
        <path fill="none" stroke="rgb(0,0,0)" d="M 16300,7147 L 16138,7147"/>
        <path fill="none" stroke="rgb(0,0,0)" d="M 16057,7147 L 15895,7147"/>
        <path fill="none" stroke="rgb(0,0,0)" d="M 15814,7147 L 15653,7147"/>
        <path fill="none" stroke="rgb(0,0,0)" d="M 15572,7147 L 15410,7147"/>
        <path fill="none" stroke="rgb(0,0,0)" d="M 15329,7147 L 15168,7147"/>
        <path fill="none" stroke="rgb(0,0,0)" d="M 15087,7147 L 14925,7147"/>
        <path fill="none" stroke="rgb(0,0,0)" d="M 14844,7147 L 14683,7147"/>
        <path fill="none" stroke="rgb(0,0,0)" d="M 14602,7147 L 14440,7147"/>
        <path fill="none" stroke="rgb(0,0,0)" d="M 14359,7147 L 14318,7147"/>
       </g>
      </g>
     </g>
    </g>
   </g>
  </g>
 </g>
</svg>